<svg xmlns="http://www.w3.org/2000/svg" width="1920" height="61" viewBox="0 0 1920 61">
  <defs>
    <style>
      .cls-1 {
        fill: #23418f;
        opacity: 0.15;
      }

      .cls-1, .cls-2 {
        fill-rule: evenodd;
      }

      .cls-2 {
        fill: #0e1a3b;
      }
    </style>
  </defs>
  <path id="bg" class="cls-1" d="M1920,450.989L0,461V43.916S327.321,33.907,711.667,33.907c32.208,0,65.121-4.03,97.333-10.009C851.716,15.969,889.491,3.211,934,.876c16.531-.867,32.515-1.478,49,0,40.95,3.67,87.82,19.685,128,25.024,32.12,4.267,124.89,8.008,156.67,8.008,384.63,0,652.33,10.009,652.33,10.009V450.989Z"/>
  <path id="bg-2" data-name="bg" class="cls-2" d="M1920,463H0V45.918H711.667c32.208,0,65.121-4.03,97.333-10.009,42.716-7.929,80.491-20.686,125-23.022,16.531-.867,32.515-1.477,49,0,40.95,3.67,87.82,19.685,128,25.023,32.12,4.268,124.89,8.008,156.67,8.008H1920V463Z"/>
</svg>
