<svg xmlns="http://www.w3.org/2000/svg" width="322" height="57" viewBox="0 0 322 57">
  <defs>
    <style>
      .cls-1 {
        fill: #23418f;
        opacity: 0.15;
      }

      .cls-1, .cls-2 {
        fill-rule: evenodd;
      }

      .cls-2 {
        fill: #0e1a3b;
      }
    </style>
  </defs>
  <path id="bg" class="cls-1" d="M325,663.989L-4,674-3,32.916s26.852-4.009,48.81-4.009c14.745,0,29.813-4.03,44.56-10.009C109.926,10.968,127.22,3.211,147.6.875c7.568-.868,14.886-1.478,22.433,0,18.746,3.67,40.207,14.685,58.6,20.023,14.7,4.267,57.177,8.008,71.724,8.008,10.09,0,24.646,3.009,24.646,3.009V663.989Z"/>
  <path id="bg-2" data-name="bg" class="cls-2" d="M322,679H0V33.918H45.81c14.745,0,29.813-4.031,44.56-10.01C109.926,15.98,127.22,8.222,147.6,5.887c7.568-.867,14.886-1.477,22.433,0,18.746,3.67,40.207,14.685,58.6,20.023,14.7,4.268,57.177,8.008,71.724,8.008H322V679Z"/>
</svg>
