<svg xmlns="http://www.w3.org/2000/svg" width="649" height="82" viewBox="0 0 649 82">
  <defs>
    <style>
      .cls-1, .cls-2 {
        fill: #fff;
        fill-rule: evenodd;
      }

      .cls-1 {
        opacity: 0.15;
      }
    </style>
  </defs>
  <path id="bg" class="cls-1" d="M0.248,11.88l647.88-9.9V38.113s-32.045,9.9-46.837,9.9c-20.1,0-40.629,3.986-60.726,9.9-26.65,7.842-50.218,20.46-77.987,22.771-10.314.858-20.286,1.461-30.571,0-25.547-3.63-54.793-19.471-79.859-24.751-20.037-4.221-40.486-7.92-60.309-7.92-45.972,0-291.591-9.9-291.591-9.9V11.88Z"/>
  <path id="bg-2" data-name="bg" class="cls-2" d="M0.248,0h647.88V36.132H601.291c-20.1,0-40.629,3.986-60.726,9.9-26.65,7.842-50.218,20.461-77.987,22.771-10.314.858-20.286,1.461-30.571,0-25.547-3.63-54.793-19.471-79.859-24.751-20.037-4.221-40.486-7.92-60.309-7.92H0.248V0Z"/>
</svg>
